<?xml version="1.0" encoding="UTF-8" standalone="no"?>
<!DOCTYPE svg PUBLIC "-//W3C//DTD SVG 1.1//EN" "http://www.w3.org/Graphics/SVG/1.1/DTD/svg11.dtd">
<svg version="1.1" xmlns="http://www.w3.org/2000/svg" xmlns:xlink="http://www.w3.org/1999/xlink" preserveAspectRatio="xMidYMid meet" viewBox="0.00000649999986990224 0.000011968974931164666 95.999999 96.00000297614152" width="96" height="96"><defs><path d="M72.4 73.88C72.41 73.9 72.44 73.92 72.45 73.94C72.47 73.96 72.48 74 72.5 74.02C72.48 73.99 72.42 73.91 72.4 73.88Z" id="d4HpFOqf0L"></path><path d="M96 96C96 96 96 96 96 96C38.4 96 6.4 96 0 96C0 96 0 96 0 96C0 38.4 0 6.4 0 0C0 0 0 0 0 0C57.6 0 89.6 0 96 0C96 0 96 0 96 0C96 57.6 96 89.6 96 96Z" id="bwEbHRh9Q"></path><path d="M23.45 74.04C23.47 74.01 23.48 73.98 23.5 73.95C23.52 73.93 23.54 73.92 23.56 73.9C23.56 73.9 23.46 74.02 23.45 74.04Z" id="f1fizmhaXR"></path><path d="M51.44 6.14L53.14 6.31L54.81 6.55L56.46 6.85L58.09 7.22L59.69 7.65L61.27 8.14L62.82 8.69L64.34 9.3L65.83 9.97L67.29 10.69L68.72 11.47L70.11 12.3L71.47 13.18L72.8 14.11L74.08 15.09L75.32 16.12L76.53 17.19L77.69 18.31L78.81 19.47L79.88 20.68L80.91 21.92L81.89 23.21L82.82 24.53L83.7 25.89L84.53 27.28L85.31 28.71L86.03 30.17L86.7 31.66L87.31 33.18L87.86 34.73L88.35 36.31L88.78 37.91L89.15 39.54L89.45 41.19L89.69 42.86L89.86 44.56L89.97 46.27L90 48L89.97 49.73L89.86 51.44L89.69 53.13L89.45 54.81L89.15 56.46L88.78 58.08L88.35 59.69L87.86 61.26L87.31 62.82L86.7 64.34L86.03 65.83L85.31 67.29L84.53 68.72L83.7 70.11L82.82 71.47L81.89 72.79L80.91 74.08L79.88 75.32L78.81 76.53L77.69 77.69L76.53 78.81L75.32 79.88L74.08 80.91L72.8 81.89L71.47 82.82L70.11 83.7L68.72 84.53L67.29 85.31L65.83 86.03L64.34 86.7L62.82 87.31L61.27 87.86L59.69 88.35L58.09 88.78L56.46 89.15L54.81 89.45L53.14 89.69L51.44 89.86L49.73 89.96L48 90L46.27 89.96L44.56 89.86L42.87 89.69L41.19 89.45L39.54 89.15L37.92 88.78L36.31 88.35L34.73 87.86L33.18 87.31L31.66 86.7L30.17 86.03L28.71 85.31L27.28 84.53L25.89 83.7L24.53 82.82L23.21 81.89L21.92 80.91L20.68 79.88L19.47 78.81L18.31 77.69L17.19 76.53L16.12 75.32L15.09 74.08L14.11 72.79L13.18 71.47L12.3 70.11L11.47 68.72L10.69 67.29L9.97 65.83L9.3 64.34L8.7 62.82L8.14 61.26L7.65 59.69L7.22 58.08L6.86 56.46L6.55 54.81L6.31 53.13L6.14 51.44L6.04 49.73L6 48L6.04 46.27L6.14 44.56L6.31 42.86L6.55 41.19L6.86 39.54L7.22 37.91L7.65 36.31L8.14 34.73L8.7 33.18L9.3 31.66L9.97 30.17L10.69 28.71L11.47 27.28L12.3 25.89L13.18 24.53L14.11 23.21L15.09 21.92L16.12 20.68L17.19 19.47L18.31 18.31L19.47 17.19L20.68 16.12L21.92 15.09L23.21 14.11L24.53 13.18L25.89 12.3L27.28 11.47L28.71 10.69L30.17 9.97L31.66 9.3L33.18 8.69L34.73 8.14L36.31 7.65L37.92 7.22L39.54 6.85L41.19 6.55L42.87 6.31L44.56 6.14L46.27 6.04L48 6L49.73 6.04L51.44 6.14ZM44.88 10.13L43.35 10.28L41.83 10.5L40.34 10.77L38.86 11.1L37.41 11.49L35.98 11.94L34.58 12.43L33.2 12.98L31.85 13.58L30.53 14.24L29.24 14.94L27.97 15.69L26.74 16.48L25.55 17.32L24.39 18.21L23.26 19.14L22.17 20.11L21.12 21.12L20.11 22.17L19.14 23.26L18.21 24.39L17.33 25.55L16.48 26.74L15.69 27.97L14.94 29.23L14.24 30.53L13.59 31.85L12.98 33.2L12.43 34.58L11.94 35.98L11.49 37.41L11.1 38.86L10.77 40.33L10.5 41.83L10.28 43.34L10.13 44.88L10.03 46.43L10 48L10.03 49.57L10.13 51.12L10.28 52.65L10.5 54.17L10.77 55.66L11.1 57.14L11.49 58.59L11.94 60.02L12.43 61.42L12.98 62.8L13.59 64.15L14.24 65.47L14.94 66.77L15.69 68.03L16.48 69.26L17.33 70.45L18.21 71.61L19.14 72.74L20.11 73.83L21.12 74.88L22.17 75.89L23.26 76.86L24.39 77.79L25.55 78.67L26.74 79.52L27.97 80.31L29.24 81.06L30.53 81.76L31.85 82.41L33.2 83.02L34.58 83.57L35.98 84.06L37.41 84.51L38.86 84.9L40.34 85.23L41.83 85.5L43.35 85.72L44.88 85.87L46.43 85.97L48 86L49.57 85.97L51.12 85.87L52.65 85.72L54.17 85.5L55.67 85.23L57.14 84.9L58.59 84.51L60.02 84.06L61.42 83.57L62.8 83.02L64.15 82.41L65.47 81.76L66.77 81.06L68.03 80.31L69.26 79.52L70.45 78.67L71.61 77.79L72.74 76.86L73.83 75.89L74.88 74.88L75.89 73.83L76.86 72.74L77.79 71.61L78.67 70.45L79.52 69.26L80.31 68.03L81.06 66.77L81.76 65.47L82.41 64.15L83.02 62.8L83.57 61.42L84.06 60.02L84.51 58.59L84.9 57.14L85.23 55.66L85.5 54.17L85.72 52.65L85.87 51.12L85.97 49.57L86 48L85.97 46.43L85.87 44.88L85.72 43.34L85.5 41.83L85.23 40.33L84.9 38.86L84.51 37.41L84.06 35.98L83.57 34.58L83.02 33.2L82.41 31.85L81.76 30.53L81.06 29.23L80.31 27.97L79.52 26.74L78.67 25.55L77.79 24.39L76.86 23.26L75.89 22.17L74.88 21.12L73.83 20.11L72.74 19.14L71.61 18.21L70.45 17.32L69.26 16.48L68.03 15.69L66.77 14.94L65.47 14.24L64.15 13.58L62.8 12.98L61.42 12.43L60.02 11.94L58.59 11.49L57.14 11.1L55.67 10.77L54.17 10.5L52.65 10.28L51.12 10.13L49.57 10.03L48 10L46.43 10.03L44.88 10.13Z" id="dfHT4FHJ"></path><path d="M66.41 63.59L63.58 66.41L46 48.83L46 20L50 20L50 47.17L66.41 63.59Z" id="a1mcZCxEGW"></path></defs><g visibility="inherit"><g visibility="inherit"><use xlink:href="#d4HpFOqf0L" opacity="1" fill="#808080" fill-opacity="1"></use><g><use xlink:href="#d4HpFOqf0L" opacity="1" fill-opacity="0" stroke="#000000" stroke-width="1" stroke-opacity="0"></use></g></g><g visibility="inherit"><use xlink:href="#bwEbHRh9Q" opacity="1" fill="#000000" fill-opacity="0"></use><g><use xlink:href="#bwEbHRh9Q" opacity="1" fill-opacity="0" stroke="#000000" stroke-width="0" stroke-opacity="0"></use></g></g><g visibility="inherit"><use xlink:href="#f1fizmhaXR" opacity="1" fill="#808080" fill-opacity="1"></use><g><use xlink:href="#f1fizmhaXR" opacity="1" fill-opacity="0" stroke="#000000" stroke-width="1" stroke-opacity="0"></use></g></g><g visibility="inherit"><use xlink:href="#dfHT4FHJ" opacity="1" fill="#000000" fill-opacity="1"></use><g><use xlink:href="#dfHT4FHJ" opacity="1" fill-opacity="0" stroke="#000000" stroke-width="1" stroke-opacity="0"></use></g></g><g visibility="inherit"><use xlink:href="#a1mcZCxEGW" opacity="1" fill="#000000" fill-opacity="1"></use><g><use xlink:href="#a1mcZCxEGW" opacity="1" fill-opacity="0" stroke="#000000" stroke-width="1" stroke-opacity="0"></use></g></g></g></svg>